<svg width="20" height="20" viewBox="0 0 20 20" fill="none" xmlns="http://www.w3.org/2000/svg">
<g id="Instagram">
<path id="Vector" d="M14.0759 2.03236C15.173 2.03551 16.2242 2.45628 17 3.20276C17.7757 3.94925 18.213 4.9608 18.2162 6.01648V13.9839C18.213 15.0396 17.7757 16.0511 17 16.7976C16.2242 17.5441 15.173 17.9649 14.0759 17.968H5.79618C4.69911 17.9649 3.6479 17.5441 2.87215 16.7976C2.0964 16.0511 1.65914 15.0396 1.65586 13.9839V6.01648C1.65914 4.9608 2.0964 3.94925 2.87215 3.20276C3.6479 2.45628 4.69911 2.03551 5.79618 2.03236H14.0759ZM14.0759 0.438965H5.79618C2.60821 0.438965 0 2.94878 0 6.01648V13.9839C0 17.0516 2.60821 19.5614 5.79618 19.5614H14.0759C17.2639 19.5614 19.8721 17.0516 19.8721 13.9839V6.01648C19.8721 2.94878 17.2639 0.438965 14.0759 0.438965Z" fill="white"/>
<path id="Vector_2" d="M15.3179 6.01677C15.0723 6.01677 14.8322 5.94668 14.6279 5.81535C14.4237 5.68403 14.2645 5.49737 14.1705 5.27898C14.0765 5.0606 14.0519 4.82029 14.0998 4.58846C14.1477 4.35662 14.266 4.14366 14.4397 3.97652C14.6134 3.80937 14.8347 3.69555 15.0756 3.64943C15.3165 3.60331 15.5663 3.62698 15.7932 3.71744C16.0202 3.8079 16.2141 3.96108 16.3506 4.15763C16.4871 4.35417 16.5599 4.58524 16.5599 4.82162C16.5603 4.97866 16.5284 5.13423 16.4661 5.27938C16.4038 5.42454 16.3123 5.55642 16.1969 5.66747C16.0815 5.77852 15.9445 5.86654 15.7936 5.92648C15.6428 5.98642 15.4811 6.01711 15.3179 6.01677ZM9.93605 6.81325C10.5911 6.81325 11.2315 7.00018 11.7762 7.3504C12.3209 7.70061 12.7454 8.19839 12.9961 8.78077C13.2468 9.36316 13.3124 10.004 13.1846 10.6223C13.0568 11.2405 12.7413 11.8084 12.2781 12.2542C11.8149 12.6999 11.2247 13.0035 10.5822 13.1264C9.93972 13.2494 9.27375 13.1863 8.66854 12.9451C8.06332 12.7038 7.54603 12.2953 7.18208 11.7712C6.81814 11.2471 6.62388 10.6308 6.62388 10.0005C6.62482 9.15544 6.97408 8.34529 7.59503 7.74777C8.21598 7.15024 9.05789 6.81416 9.93605 6.81325ZM9.93605 5.21986C8.95346 5.21986 7.99295 5.50024 7.17596 6.02554C6.35897 6.55084 5.72221 7.29747 5.34619 8.17101C4.97017 9.04455 4.87179 10.0058 5.06348 10.9331C5.25517 11.8605 5.72833 12.7123 6.42312 13.3809C7.11791 14.0494 8.00313 14.5048 8.96683 14.6892C9.93053 14.8737 10.9294 14.779 11.8372 14.4172C12.745 14.0553 13.5209 13.4426 14.0668 12.6564C14.6127 11.8703 14.9041 10.946 14.9041 10.0005C14.9041 8.73257 14.3807 7.51661 13.449 6.62007C12.5173 5.72353 11.2536 5.21986 9.93605 5.21986Z" fill="white"/>
</g>
</svg>
