<svg width="20" height="20" viewBox="0 0 20 20" fill="none" xmlns="http://www.w3.org/2000/svg">
<g id="Linkdin">
<path id="Vector" d="M18.4413 0.291016H2.23516C1.34963 0.291016 0.575928 0.928181 0.575928 1.80331V18.0454C0.575928 18.9253 1.34963 19.7094 2.23516 19.7094H18.4365C19.3268 19.7094 19.9943 18.9201 19.9943 18.0454V1.80331C19.9995 0.928181 19.3268 0.291016 18.4413 0.291016ZM6.59519 16.4772H3.81333V7.82777H6.59519V16.4772ZM5.30048 6.51269H5.28055C4.39025 6.51269 3.81377 5.84996 3.81377 5.02034C3.81377 4.17555 4.40542 3.52842 5.31565 3.52842C6.22589 3.52842 6.78287 4.17079 6.80281 5.02034C6.80237 5.84996 6.22589 6.51269 5.30048 6.51269ZM16.7621 16.4772H13.9802V11.7478C13.9802 10.6148 13.5754 9.84069 12.5689 9.84069C11.8 9.84069 11.3449 10.3608 11.1425 10.8675C11.0666 11.0496 11.0462 11.2975 11.0462 11.5506V16.4772H8.26438V7.82777H11.0462V9.03145C11.4511 8.45496 12.0835 7.62535 13.555 7.62535C15.3811 7.62535 16.7625 8.82903 16.7625 11.4241L16.7621 16.4772Z" fill="white"/>
</g>
</svg>
