<svg width="20" height="16" viewBox="0 0 20 16" fill="none" xmlns="http://www.w3.org/2000/svg">
<g id="Twitter">
<path id="Vector" d="M19.5759 2.1537C18.8568 2.46592 18.096 2.67161 17.3175 2.76428C18.1356 2.28554 18.7509 1.52498 19.0479 0.625233C18.2744 1.07722 17.4295 1.39436 16.5495 1.56306C16.1789 1.17497 15.7333 0.866237 15.2396 0.65562C14.7459 0.445004 14.2145 0.336906 13.6777 0.337897C11.5044 0.337897 9.74558 2.06989 9.74558 4.20495C9.74404 4.50193 9.77809 4.79802 9.84702 5.08691C8.28858 5.0139 6.76255 4.61663 5.36657 3.92051C3.97058 3.22439 2.73537 2.24475 1.73996 1.04426C1.39075 1.63255 1.20607 2.30377 1.20522 2.98777C1.20522 4.32866 1.9053 5.51392 2.96241 6.20832C2.3361 6.19346 1.72263 6.02781 1.17407 5.72543V5.77332C1.17407 7.64898 2.5319 9.20937 4.32903 9.56455C3.99108 9.65458 3.64283 9.70019 3.29308 9.70024C3.04491 9.70067 2.7973 9.67661 2.55386 9.6284C3.05347 11.1648 4.50754 12.2823 6.22999 12.3142C4.83038 13.3921 3.11202 13.9746 1.345 13.9704C1.03134 13.9699 0.717983 13.9512 0.406494 13.9145C2.2041 15.0615 4.29366 15.6682 6.42648 15.6624C13.6693 15.6624 17.6262 9.76808 17.6262 4.65591C17.6262 4.4883 17.6218 4.32068 17.6138 4.15706C18.3818 3.61115 19.0462 2.93274 19.5759 2.1537Z" fill="white"/>
</g>
</svg>
